# xmcd
#
# Track frame offsets: 
#        150
#        18842
#        35920
#        49621
#        66922
#        78181
#        99932
#        112519
#        128333
#        140449
#        163125
#        178253
#        197038
#        221292
#
# Disc length: 3218 seconds
#
# Revision: 0
# Processed by: cddbd v1.5.2PL0 Copyright (c) Steve Scherf et al.
# Submitted via: ExactAudioCopy v0.95a5
#
DISCID=b10c900e
DTITLE=UR - Spiritq
DYEAR=2007
DGENRE=Blues
TTITLE0=Kryzys wieku sredniego
TTITLE1=Psycho-mur
TTITLE2=Pejzaz miejski
TTITLE3=Tryptyk zulerskiczI
TTITLE4=PISaUR
TTITLE5=Harfa rur
TTITLE6=Czlowieku
TTITLE7=Tryptyk zulerski czIII
TTITLE8=Salsa Peru
TTITLE9=Tryptyk zulerski czII
TTITLE10=Popsuty psalm
TTITLE11=Cela
TTITLE12=Samotnosc  scisla
TTITLE13=Fucking Story
EXTD=
EXTT0=
EXTT1=
EXTT2=
EXTT3=
EXTT4=
EXTT5=
EXTT6=
EXTT7=
EXTT8=
EXTT9=
EXTT10=
EXTT11=
EXTT12=
EXTT13=
PLAYORDER=
